<svg width="54" height="54" viewBox="0 0 54 54" fill="none" xmlns="http://www.w3.org/2000/svg">
<path d="M2 27C2 15.2158 2 9.32105 5.66053 5.66053C9.32105 2 15.2132 2 27 2C38.7842 2 44.6789 2 48.3395 5.66053C52 9.32105 52 15.2132 52 27C52 38.7842 52 44.6789 48.3395 48.3395C44.6789 52 38.7868 52 27 52C15.2158 52 9.32105 52 5.66053 48.3395C2 44.6789 2 38.7868 2 27Z" stroke="white" stroke-width="3.125" stroke-linecap="round" stroke-linejoin="round"/>
<path d="M41.495 12.5254H41.4687M38.8424 26.9991C38.8424 30.1398 37.5948 33.1519 35.3739 35.3727C33.1531 37.5935 30.141 38.8412 27.0003 38.8412C23.8596 38.8412 20.8475 37.5935 18.6267 35.3727C16.4059 33.1519 15.1582 30.1398 15.1582 26.9991C15.1582 23.8584 16.4059 20.8463 18.6267 18.6254C20.8475 16.4046 23.8596 15.157 27.0003 15.157C30.141 15.157 33.1531 16.4046 35.3739 18.6254C37.5948 20.8463 38.8424 23.8584 38.8424 26.9991Z" stroke="white" stroke-width="3.125" stroke-linecap="round" stroke-linejoin="round"/>
</svg>
