<svg width="32" height="32" viewBox="0 0 32 32" fill="none" xmlns="http://www.w3.org/2000/svg">
<path d="M14.2337 3.21005e-08C16.9064 -0.000179425 19.5252 0.752087 21.7904 2.17071C24.0556 3.58933 25.8755 5.61698 27.0421 8.02163C28.2086 10.4263 28.6746 13.1108 28.3867 15.7678C28.0987 18.4249 27.0685 20.9473 25.4139 23.0462L31.5299 29.162C31.835 29.4778 32.0038 29.9008 31.9999 30.3399C31.9961 30.779 31.82 31.199 31.5095 31.5095C31.199 31.82 30.779 31.9961 30.3399 31.9999C29.9008 32.0038 29.4777 31.835 29.1619 31.5299L23.0459 25.4142C21.2631 26.8191 19.1702 27.7774 16.9417 28.209C14.7132 28.6406 12.4138 28.533 10.2354 27.8953C8.05691 27.2576 6.06256 26.1081 4.4187 24.5429C2.77484 22.9777 1.52913 21.042 0.785523 18.8975C0.0419114 16.7529 -0.178047 14.4617 0.143999 12.2148C0.466045 9.96797 1.32076 7.83072 2.63682 5.98136C3.95289 4.13201 5.69216 2.62418 7.7095 1.58369C9.72685 0.54319 11.9638 0.000193406 14.2337 3.21005e-08ZM14.2337 3.34926C11.3467 3.34926 8.57789 4.49608 6.53646 6.53743C4.49504 8.57878 3.34817 11.3474 3.34817 14.2343C3.34817 17.1213 4.49504 19.8899 6.53646 21.9313C8.57789 23.9726 11.3467 25.1194 14.2337 25.1194C17.1207 25.1194 19.8895 23.9726 21.9309 21.9313C23.9723 19.8899 25.1192 17.1213 25.1192 14.2343C25.1192 11.3474 23.9723 8.57878 21.9309 6.53743C19.8895 4.49608 17.1207 3.34926 14.2337 3.34926ZM14.2337 5.02389C16.6765 5.02389 19.0193 5.99427 20.7467 7.72157C22.4741 9.44886 23.4445 11.7916 23.4445 14.2343C23.4445 16.6771 22.4741 19.0198 20.7467 20.7471C19.0193 22.4744 16.6765 23.4448 14.2337 23.4448C11.7908 23.4448 9.44801 22.4744 7.72065 20.7471C5.99329 19.0198 5.02287 16.6771 5.02287 14.2343C5.02287 11.7916 5.99329 9.44886 7.72065 7.72157C9.44801 5.99427 11.7908 5.02389 14.2337 5.02389Z" fill="#606060"/>
</svg>
