<svg width="28" height="26" viewBox="0 0 28 26" fill="none" xmlns="http://www.w3.org/2000/svg">
<path fill-rule="evenodd" clip-rule="evenodd" d="M14 0.976677C12.0976 0.976677 10.2732 1.53199 8.92802 2.52045C7.58284 3.50892 6.82713 4.84956 6.82713 6.24746V12.3752C6.82713 13.0674 7.01266 13.7528 7.37313 14.3923C7.7336 15.0318 8.26195 15.6128 8.92802 16.1022C9.59408 16.5917 10.3848 16.9799 11.2551 17.2448C12.1253 17.5097 13.058 17.646 14 17.646C14.942 17.646 15.8747 17.5097 16.7449 17.2448C17.6152 16.9799 18.4059 16.5917 19.072 16.1022C19.738 15.6128 20.2664 15.0318 20.6269 14.3923C20.9873 13.7528 21.1729 13.0674 21.1729 12.3752V6.24746C21.1729 4.84956 20.4172 3.50892 19.072 2.52045C17.7268 1.53199 15.9024 0.976677 14 0.976677ZM12.1739 22.4606V24.629C12.1739 24.9849 12.3663 25.3262 12.7088 25.5778C13.0512 25.8295 13.5157 25.9708 14 25.9708C14.4843 25.9708 14.9488 25.8295 15.2912 25.5778C15.6337 25.3262 15.8261 24.9849 15.8261 24.629V22.4588C19.1071 22.3438 22.202 21.3052 24.4687 19.5583C26.7354 17.8114 28 15.4903 28 13.0766C28 12.7207 27.8076 12.3794 27.4652 12.1277C27.1227 11.8761 26.6582 11.7347 26.1739 11.7347C25.6896 11.7347 25.2251 11.8761 24.8827 12.1277C24.5402 12.3794 24.3478 12.7207 24.3478 13.0766C24.3478 14.856 23.3859 16.5625 21.6736 17.8207C19.9613 19.079 17.6389 19.7858 15.2174 19.7858H12.7826C10.3611 19.7858 8.03871 19.079 6.32642 17.8207C4.61413 16.5625 3.65217 14.856 3.65217 13.0766C3.65217 12.9004 3.60494 12.7259 3.51317 12.5631C3.4214 12.4003 3.28689 12.2523 3.11733 12.1277C2.94776 12.0031 2.74645 11.9043 2.5249 11.8369C2.30335 11.7694 2.06589 11.7347 1.82609 11.7347C1.58628 11.7347 1.34883 11.7694 1.12727 11.8369C0.905723 11.9043 0.704417 12.0031 0.534849 12.1277C0.365281 12.2523 0.230772 12.4003 0.139003 12.5631C0.0472335 12.7259 2.08517e-07 12.9004 2.1209e-07 13.0766C-0.000597851 15.4906 1.26366 17.8121 3.53043 19.5594C5.79721 21.3067 8.89246 22.3456 12.1739 22.4606Z" fill="#606060"/>
</svg>
